<?xml version="1.0" standalone="no"?>
<!DOCTYPE svg PUBLIC "-//W3C//DTD SVG 20010904//EN"
 "http://www.w3.org/TR/2001/REC-SVG-20010904/DTD/svg10.dtd">
<svg version="1.0" xmlns="http://www.w3.org/2000/svg"
 width="460.000000pt" height="460.000000pt" viewBox="0 0 460.000000 460.000000"
 preserveAspectRatio="xMidYMid meet">
<metadata>
Created by potrace 1.14, written by Peter Selinger 2001-2017
</metadata>
<g transform="translate(0.000000,460.000000) scale(0.100000,-0.100000)"
fill="#000000" stroke="none">
<path d="M2228 4208 c-168 -290 -311 -694 -388 -1093 -25 -128 -60 -383 -60
-438 0 -29 -5 -39 -22 -46 -39 -16 -647 -75 -746 -72 -51 1 -136 11 -189 21
-132 28 -325 40 -458 30 -60 -5 -113 -9 -118 -9 -4 -1 -6 -79 -5 -173 l3 -173
75 -8 c95 -10 249 6 336 35 62 20 152 74 248 148 54 42 81 48 336 76 312 34
500 54 514 54 8 0 11 -79 12 -288 1 -365 26 -601 100 -932 77 -343 223 -727
360 -947 41 -66 48 -73 78 -73 29 0 36 6 79 78 201 334 358 828 429 1347 20
152 23 209 23 548 0 370 0 378 20 382 65 13 759 76 801 73 32 -3 76 -17 120
-40 112 -58 191 -78 309 -78 88 0 200 15 268 36 15 5 17 23 17 184 l0 180 -27
-5 c-16 -2 -59 -7 -96 -10 -99 -8 -318 -66 -429 -114 -171 -73 -242 -87 -618
-126 -190 -19 -352 -35 -361 -35 -13 0 -19 19 -28 93 -59 453 -185 884 -363
1241 -88 177 -103 196 -147 196 -35 0 -39 -4 -73 -62z m144 -115 c11 -24 17
-50 15 -56 -3 -7 -22 -48 -42 -92 l-36 -80 59 58 59 58 31 -72 c18 -39 32 -78
32 -86 0 -8 -11 -26 -25 -41 -14 -15 -25 -29 -25 -32 0 -3 19 -18 41 -34 56
-39 94 -103 129 -216 17 -52 30 -97 30 -102 0 -4 -19 4 -42 17 -24 14 -84 34
-133 46 l-91 21 -17 47 c-18 52 -72 126 -90 126 -8 0 -15 -31 -20 -80 -5 -44
-10 -85 -12 -91 -2 -7 -41 -24 -87 -39 -46 -16 -107 -38 -136 -51 -47 -21 -53
-21 -48 -6 70 230 90 292 116 363 42 114 103 245 168 362 l54 98 25 -36 c14
-20 34 -57 45 -82z m63 -687 c111 -50 201 -179 263 -376 29 -93 69 -287 60
-295 -5 -5 -171 -25 -209 -25 -20 0 -33 10 -55 46 -108 171 -340 139 -421 -58
-8 -21 -22 -39 -31 -42 -18 -5 -180 -19 -197 -17 -13 2 -8 60 16 198 57 333
184 540 359 590 63 18 148 10 215 -21z m339 -874 c0 -126 -14 -201 -50 -272
-40 -82 -119 -142 -222 -169 -47 -13 -47 -11 -27 -105 8 -38 14 -71 12 -72 -1
-1 -45 3 -98 9 -66 7 -124 7 -185 0 -49 -5 -90 -9 -91 -9 -1 1 5 30 12 66 21
96 21 98 -27 111 -110 29 -189 94 -234 194 -24 51 -28 77 -32 171 l-4 111 56
7 c31 3 80 9 109 12 l54 6 6 -75 c13 -174 103 -256 267 -245 75 6 135 33 173
78 45 52 52 94 52 291 0 7 213 23 220 17 5 -5 10 -60 9 -126z m-846 -469 c26
-21 66 -47 90 -57 l42 -19 -48 -22 c-56 -26 -118 -77 -143 -119 l-18 -29 -5
34 c-9 55 -26 261 -26 310 l0 44 30 -52 c17 -29 52 -70 78 -90z m851 2 c-5
-72 -13 -156 -17 -188 l-7 -57 -35 47 c-24 32 -57 58 -104 84 l-69 37 46 20
c57 25 142 104 169 155 11 22 21 37 23 35 2 -1 -1 -62 -6 -133z m-339 -185
c159 -26 256 -78 285 -154 17 -45 17 -50 -5 -167 -28 -151 -75 -358 -84 -366
-4 -4 -57 -9 -119 -11 l-112 -4 0 53 c0 68 -20 116 -56 134 -84 44 -159 -20
-159 -134 l0 -52 -112 3 -112 3 -27 110 c-32 126 -69 334 -69 384 0 60 42 116
114 151 107 53 301 74 456 50z m-242 -755 c1 -1 11 -35 22 -74 11 -40 34 -103
51 -139 l31 -67 29 61 c15 34 37 96 48 138 10 43 21 79 23 81 2 2 54 7 116 11
l112 7 -14 -40 c-25 -70 -45 -102 -111 -172 l-65 -68 27 -6 c57 -13 58 -18 23
-105 l-33 -80 -54 30 c-29 16 -53 27 -53 24 0 -3 14 -37 31 -75 l31 -69 -53
-102 -52 -102 -24 38 c-38 62 -117 220 -163 328 -48 113 -130 352 -130 379 0
17 7 18 103 12 56 -4 103 -9 105 -10z"/>
<path d="M2224 3256 c-203 -64 -141 -271 81 -271 122 0 205 59 205 147 0 96
-158 164 -286 124z"/>
<path d="M2234 1781 c-107 -27 -162 -116 -118 -190 53 -90 224 -116 330 -50
92 57 83 169 -19 221 -45 23 -142 32 -193 19z"/>
</g>
</svg>
